<!--?xml version="1.0" standalone="no"?-->
<svg id="sw-js-blob-svg" viewBox="0 0 100 100" xmlns="http://www.w3.org/2000/svg">
    <defs>
        <linearGradient id="sw-gradient" x1="0" x2="1" y1="1" y2="0">
            <stop id="stop1" stop-color="rgba(55, 248, 192.748, 1)" offset="0%"></stop>
            <stop id="stop2" stop-color="rgba(31, 68.764, 251, 1)" offset="100%"></stop>
        </linearGradient>
    </defs>
    <path fill="url(#sw-gradient)"
        d="M19.1,-26.7C25.1,-21.9,30.6,-16.8,33.5,-10.3C36.5,-3.8,36.9,4.2,34.6,11.3C32.4,18.5,27.5,24.8,21.3,30.6C15.1,36.4,7.5,41.7,0.1,41.7C-7.4,41.6,-14.9,36.2,-20.2,30C-25.5,23.9,-28.7,17.2,-31.6,9.9C-34.5,2.6,-37.2,-5.2,-36.3,-13C-35.4,-20.9,-31.1,-28.9,-24.5,-33.5C-17.8,-38.1,-8.9,-39.3,-1.2,-37.7C6.5,-36.1,13.1,-31.6,19.1,-26.7Z"
        width="100%" height="100%" transform="translate(50 50)" stroke-width="0"
        style="transition: 0.3s;" stroke="url(#sw-gradient)"></path>
</svg>