<svg xmlns="http://www.w3.org/2000/svg" xmlns:xlink="http://www.w3.org/1999/xlink" width="491"
    zoomAndPan="magnify" viewBox="0 0 368.25 247.500006" height="330"
    preserveAspectRatio="xMidYMid meet" version="1.0">
    <defs>
        <g />
        <clipPath id="fc1fbf81e3">
            <path
                d="M 169.105469 50.808594 L 356.972656 50.808594 L 356.972656 213 L 169.105469 213 Z M 169.105469 50.808594 "
                clip-rule="nonzero" />
        </clipPath>
        <clipPath id="bdb7e95233">
            <path d="M 0 50.808594 L 187.632812 50.808594 L 187.632812 213 L 0 213 Z M 0 50.808594 "
                clip-rule="nonzero" />
        </clipPath>
    </defs>
    <g fill="#0e5792" fill-opacity="1">
        <g transform="translate(246.319718, 169.925903)">
            <g>
                <path
                    d="M 19.65625 7.59375 L -2.703125 7.59375 L 34.015625 -100.15625 L 56.375 -100.15625 Z M 19.65625 7.59375 " />
            </g>
        </g>
    </g>
    <g fill="#0e5792" fill-opacity="1">
        <g transform="translate(281.965867, 169.925903)">
            <g>
                <path
                    d="M 1.21875 8.8125 L 40.25 -105.4375 L 53.40625 -105.4375 L 14.5 8.8125 Z M 1.21875 8.8125 " />
            </g>
        </g>
    </g>
    <g clip-path="url(#fc1fbf81e3)">
        <path fill="#0e717e"
            d="M 356.972656 123.160156 L 356.972656 55.082031 C 356.972656 52.726562 355.0625 50.820312 352.710938 50.820312 L 173.605469 50.820312 C 171.25 50.820312 169.339844 52.726562 169.339844 55.082031 L 169.339844 123.160156 C 169.339844 180.171875 203.832031 212.867188 263.964844 212.867188 C 322.207031 212.867188 356.972656 179.332031 356.972656 123.160156 Z M 199.191406 119.578125 L 199.191406 89.199219 L 327.121094 89.199219 L 327.121094 119.578125 C 327.121094 154.109375 303.898438 174.484375 263.476562 174.484375 C 222.160156 174.484375 199.191406 154.597656 199.191406 119.578125 Z M 199.191406 119.578125 "
            fill-opacity="1" fill-rule="nonzero" />
    </g>
    <g clip-path="url(#bdb7e95233)">
        <path fill="#0e717e"
            d="M 187.632812 123.160156 L 187.632812 55.082031 C 187.632812 52.726562 185.722656 50.820312 183.371094 50.820312 L 4.265625 50.820312 C 1.910156 50.820312 0 52.726562 0 55.082031 L 0 123.160156 C 0 180.171875 34.492188 212.867188 94.625 212.867188 C 152.867188 212.867188 187.632812 179.332031 187.632812 123.160156 Z M 29.851562 119.578125 L 29.851562 89.199219 L 157.78125 89.199219 L 157.78125 119.578125 C 157.78125 154.109375 134.558594 174.484375 94.136719 174.484375 C 52.820312 174.484375 29.851562 154.597656 29.851562 119.578125 Z M 29.851562 119.578125 "
            fill-opacity="1" fill-rule="nonzero" />
    </g>
</svg>